<?xml version="1.0" encoding="UTF-8" standalone="no"?><!DOCTYPE svg PUBLIC "-//W3C//DTD SVG 1.1//EN" "http://www.w3.org/Graphics/SVG/1.1/DTD/svg11.dtd"><svg width="100%" height="100%" viewBox="0 0 36 48" version="1.1" xmlns="http://www.w3.org/2000/svg" xmlns:xlink="http://www.w3.org/1999/xlink" xml:space="preserve" xmlns:serif="http://www.serif.com/" style="fill-rule:evenodd;clip-rule:evenodd;stroke-linejoin:round;stroke-miterlimit:1.41421;"><path id="bold-icon" d="M0.162,48l0,-48l16.825,0c5.815,0 10.232,1.116 13.252,3.348c3.02,2.232 4.53,5.505 4.53,9.82c0,2.326 -0.6,4.389 -1.801,6.19c-1.2,1.8 -2.888,3.113 -5.064,3.939c2.476,0.637 4.417,1.885 5.824,3.742c1.407,1.857 2.11,4.136 2.11,6.837c0,4.577 -1.453,8.056 -4.361,10.438c-2.907,2.382 -7.118,3.611 -12.633,3.686l-18.682,0Zm9.904,-20.877l0,12.943l8.497,0c2.288,0 4.089,-0.554 5.402,-1.66c1.313,-1.107 1.969,-2.655 1.969,-4.643c0,-4.389 -2.269,-6.602 -6.809,-6.64l-9.059,0Zm0,-7.034l7.315,0c4.989,-0.037 7.484,-2.026 7.484,-5.965c0,-2.138 -0.628,-3.695 -1.885,-4.67c-1.257,-0.976 -3.254,-1.463 -5.993,-1.463l-6.921,0l0,12.098Z" style="fill:#fff;fill-rule:nonzero;"/></svg>