<?xml version="1.0" encoding="UTF-8" standalone="no"?><!DOCTYPE svg PUBLIC "-//W3C//DTD SVG 1.1//EN" "http://www.w3.org/Graphics/SVG/1.1/DTD/svg11.dtd"><svg width="100%" height="100%" viewBox="0 0 52 52" version="1.1" xmlns="http://www.w3.org/2000/svg" xmlns:xlink="http://www.w3.org/1999/xlink" xml:space="preserve" xmlns:serif="http://www.serif.com/" style="fill-rule:evenodd;clip-rule:evenodd;stroke-linejoin:round;stroke-miterlimit:1.41421;"><path id="link-icon" d="M27.676,29.04c2.289,4.307 1.62,9.779 -2.006,13.406l-5.303,5.303c-4.447,4.447 -11.668,4.447 -16.116,0c-4.447,-4.448 -4.447,-11.669 0,-16.116l5.303,-5.303c3.627,-3.626 9.098,-4.295 13.405,-2.007c-1.191,1.193 -2.379,2.39 -3.564,3.589c-2.245,-0.612 -4.747,-0.037 -6.508,1.725l-5.329,5.329c-2.615,2.615 -2.615,6.861 0,9.476c2.615,2.615 6.861,2.615 9.476,0l5.329,-5.329c1.762,-1.762 2.337,-4.264 1.725,-6.509c1.199,-1.185 2.395,-2.373 3.588,-3.564Zm9.033,-10.296c0.953,-0.953 0.953,-2.5 0,-3.453c-0.953,-0.953 -2.5,-0.953 -3.453,0l-17.965,17.965c-0.953,0.953 -0.953,2.5 0,3.453c0.953,0.953 2.5,0.953 3.453,0l17.965,-17.965Zm-12.386,4.215c-2.288,-4.307 -1.619,-9.778 2.007,-13.405l5.303,-5.303c4.447,-4.447 11.668,-4.447 16.116,0c4.447,4.448 4.447,11.669 0,16.116l-5.303,5.303c-3.627,3.626 -9.099,4.295 -13.406,2.006c1.191,-1.193 2.379,-2.389 3.564,-3.588c2.245,0.612 4.747,0.037 6.509,-1.725l5.329,-5.329c2.615,-2.615 2.615,-6.861 0,-9.476c-2.615,-2.615 -6.861,-2.615 -9.476,0l-5.329,5.329c-1.762,1.761 -2.337,4.263 -1.725,6.508c-1.199,1.185 -2.396,2.373 -3.589,3.564Z" style="fill:#fff;"/></svg>