<?xml version="1.0" encoding="UTF-8" standalone="no"?><!DOCTYPE svg PUBLIC "-//W3C//DTD SVG 1.1//EN" "http://www.w3.org/Graphics/SVG/1.1/DTD/svg11.dtd"><svg width="100%" height="100%" viewBox="0 0 40 48" version="1.1" xmlns="http://www.w3.org/2000/svg" xmlns:xlink="http://www.w3.org/1999/xlink" xml:space="preserve" xmlns:serif="http://www.serif.com/" style="fill-rule:evenodd;clip-rule:evenodd;stroke-linejoin:round;stroke-miterlimit:1.41421;"><g id="underline-icon"><rect x="0.862" y="42.574" width="38.276" height="5.426" style="fill:#fff;"/><path d="M37.714,0l0,23.515c0,3.332 -0.731,6.229 -2.193,8.69c-1.463,2.462 -3.527,4.36 -6.192,5.692c-2.665,1.333 -5.775,1.999 -9.329,1.999c-3.591,0 -6.719,-0.657 -9.385,-1.971c-2.665,-1.314 -4.72,-3.202 -6.163,-5.664c-1.444,-2.462 -2.166,-5.396 -2.166,-8.801l0,-23.46l8.218,0l0,23.571c0,3.183 0.806,5.599 2.416,7.246c1.61,1.648 3.97,2.471 7.08,2.471c6.33,0 9.496,-3.331 9.496,-9.995l0,-23.293l8.218,0Z" style="fill:#fff;fill-rule:nonzero;"/></g></svg>